<svg width="42" height="42" viewBox="0 0 42 42" fill="none" xmlns="http://www.w3.org/2000/svg">
<path d="M38.535 20.2888C38.9575 20.7318 39.138 20.9147 38.7516 21.5184C38.494 21.9204 38.2397 22.3169 37.9887 22.7079C37.9797 22.7218 37.9746 22.7379 37.9739 22.7545C37.9731 22.7711 37.9769 22.7876 37.9846 22.8022C38.2094 23.2222 38.3917 23.6597 38.5317 24.1147C38.541 24.1437 38.5607 24.1615 38.5908 24.1681C39.1093 24.2813 39.623 24.3961 40.1322 24.5126C40.576 24.6151 40.6834 24.9072 40.6859 25.3501C40.6892 25.9615 40.6892 26.5729 40.6859 27.1843C40.6834 27.6421 40.5432 27.8874 40.1018 27.9915C39.6009 28.1097 39.0986 28.2226 38.5949 28.3303C38.5654 28.3369 38.546 28.3547 38.5367 28.3836C38.3917 28.8436 38.2066 29.2863 37.9813 29.7117C37.9756 29.7225 37.9728 29.7345 37.9733 29.7466C37.9737 29.7587 37.9773 29.7705 37.9838 29.7806C38.261 30.2072 38.5328 30.6302 38.7992 31.0497C39.0526 31.4483 39.0182 31.7108 38.6827 32.0521C38.2304 32.5125 37.7762 32.9703 37.3201 33.4253C36.7894 33.9536 36.4941 33.6574 35.9232 33.3006C35.6262 33.1147 35.3309 32.9246 35.0372 32.7305C35.0121 32.7141 34.9864 32.713 34.9601 32.7272C34.5379 32.9574 34.0966 33.1434 33.6361 33.285C33.6077 33.2938 33.5905 33.3126 33.5844 33.3416C33.4838 33.8212 33.3799 34.2975 33.2727 34.7706C33.2273 34.9697 33.1685 35.1129 33.0964 35.2004C32.742 35.6303 32.0529 35.426 31.9635 34.8822C31.9487 34.7903 31.9594 34.6601 31.9955 34.4917C32.13 33.8628 32.2662 33.235 32.404 32.6083C32.4737 32.2867 32.7444 32.1759 33.0693 32.0857C33.6216 31.9331 34.0332 31.7699 34.3039 31.596C34.6656 31.3638 34.9765 31.1768 35.3416 31.3966C35.7752 31.6581 36.2023 31.9227 36.6229 32.1907C36.637 32.1998 36.6538 32.2037 36.6706 32.2019C36.6873 32.2002 36.7028 32.1927 36.7148 32.1809L37.4424 31.4533C37.4532 31.4427 37.4599 31.4286 37.4614 31.4135C37.4629 31.3984 37.4591 31.3831 37.4506 31.3704C37.1482 30.917 36.8534 30.4536 36.5663 29.98C36.4834 29.8438 36.572 29.5436 36.6655 29.3779C36.9483 28.8764 37.1944 28.271 37.4038 27.5617C37.5531 27.0588 38.855 26.9317 39.3389 26.825C39.363 26.8196 39.375 26.8043 39.375 26.7791V25.7209C39.375 25.6968 39.3633 25.6821 39.3398 25.6766C38.864 25.5678 38.3907 25.4642 37.9198 25.3657C37.668 25.3124 37.4949 25.168 37.4087 24.9088C37.2693 24.4904 37.1487 24.0795 36.9535 23.6833C36.7755 23.3223 36.3751 22.8006 36.6311 22.4003C36.9051 21.9721 37.1782 21.5439 37.4506 21.1157C37.4576 21.1048 37.4607 21.0919 37.4593 21.0791C37.458 21.0663 37.4523 21.0543 37.4432 21.0451L36.7139 20.3191C36.7016 20.3068 36.6855 20.299 36.6683 20.2971C36.6511 20.2951 36.6339 20.2992 36.6196 20.3085C36.2094 20.5693 35.7993 20.8313 35.3891 21.0943C35.1537 21.2461 34.9134 21.2395 34.6558 21.0943C34.1319 20.7974 33.5237 20.5486 32.8314 20.3479C32.5714 20.2716 32.4417 20.0419 32.3794 19.7687C32.2788 19.3236 32.1809 18.8773 32.0857 18.43C32.0775 18.3933 32.0548 18.375 32.0176 18.375H31.5616C31.5205 18.375 31.5 18.3955 31.5 18.4365V22.2707C31.5 22.2819 31.5044 22.2927 31.5122 22.3008C31.52 22.309 31.5306 22.3137 31.5419 22.3141C34.5959 22.4167 36.4719 25.6741 34.8272 28.3303C34.5352 28.802 33.7296 29.7733 33.171 29.6133C32.7715 29.5001 32.541 29.0563 32.7526 28.6831C32.8008 28.5972 32.935 28.4643 33.1554 28.2844C35.0914 26.702 33.9306 23.7111 31.532 23.6266C31.5279 23.6264 31.5238 23.627 31.5199 23.6285C31.516 23.6299 31.5125 23.6321 31.5095 23.6349C31.5065 23.6378 31.5041 23.6412 31.5025 23.645C31.5009 23.6488 31.5 23.6529 31.5 23.657C31.5006 28.2174 31.5003 32.78 31.4992 37.3447C31.4984 39.2372 30.0571 40.6736 28.1367 40.676C23.6382 40.6831 19.1398 40.687 14.6418 40.6875C13.8406 40.6881 13.2965 40.6547 13.0094 40.5874C11.8265 40.3102 10.8478 39.3291 10.5804 38.1199C10.5279 37.8815 10.5017 37.5096 10.5017 37.0043C10.4995 32.9957 10.4992 28.9879 10.5008 24.981C10.5008 24.9695 10.4963 24.9584 10.4881 24.9502C10.48 24.9421 10.4689 24.9375 10.4574 24.9375C9.83722 24.9383 8.92257 25.1664 8.73882 24.3206C8.63108 23.8246 8.52253 23.3289 8.41315 22.8334C8.40768 22.8077 8.39237 22.791 8.36722 22.7834C7.91057 22.6434 7.47225 22.4602 7.05225 22.2338C7.03782 22.2261 7.02168 22.2223 7.00553 22.2229C6.98938 22.2235 6.97379 22.2284 6.96038 22.237C6.52343 22.5198 6.08264 22.8044 5.63804 23.091C5.25905 23.3346 4.98343 23.2132 4.67335 22.9122C4.20905 22.4621 3.7505 22.0068 3.29768 21.5463C2.98761 21.2297 2.95151 20.9508 3.18366 20.5866C3.46147 20.1513 3.73928 19.7162 4.0171 19.2815C4.02359 19.2712 4.02723 19.2594 4.02766 19.2471C4.0281 19.2349 4.0253 19.2227 4.01956 19.2117C3.7937 18.7857 3.60803 18.3427 3.46257 17.8828C3.45327 17.8533 3.43358 17.8352 3.4035 17.8287C2.89546 17.7155 2.3896 17.6039 1.88593 17.494C1.42901 17.3947 1.31663 17.0986 1.31417 16.6441C1.31089 16.0344 1.31089 15.4249 1.31417 14.8157C1.31581 14.3629 1.45772 14.1077 1.89823 14.0085C2.40081 13.8947 2.90366 13.7824 3.40678 13.6713C3.43303 13.6659 3.45026 13.6503 3.45846 13.6246C3.60612 13.1625 3.79288 12.7168 4.01874 12.2875C4.02419 12.277 4.02684 12.2654 4.0264 12.2537C4.02597 12.242 4.02248 12.2308 4.01628 12.221C3.72206 11.7644 3.43194 11.3121 3.14593 10.8642C2.92936 10.5254 3.03436 10.2383 3.30835 9.95696C3.666 9.58891 4.02776 9.22524 4.39362 8.86595C4.85382 8.41395 5.06874 8.0645 5.66921 8.44349C6.08757 8.70763 6.50921 8.97368 6.93413 9.24165C6.9491 9.25081 6.96597 9.25633 6.98336 9.25776C7.00075 9.25918 7.01818 9.25648 7.03421 9.24985L8.36229 8.68958C8.37797 8.68303 8.39184 8.67274 8.4027 8.65959C8.41356 8.64645 8.42108 8.63084 8.42464 8.61411C8.53073 8.11755 8.64065 7.61169 8.7544 7.09653C8.94307 6.24177 10.2301 6.44684 10.0046 7.50505C9.87386 8.11919 9.74261 8.73278 9.61081 9.34583C9.5419 9.66903 9.32206 9.80274 8.99639 9.89544C8.37679 10.0726 7.78999 10.3286 7.236 10.6633C6.84718 10.8987 5.73565 10.0423 5.39768 9.81587C5.37918 9.80337 5.35685 9.79776 5.33454 9.80001C5.31223 9.80226 5.29134 9.81221 5.27546 9.82817L4.56999 10.5353C4.55583 10.5497 4.54705 10.5686 4.54511 10.5888C4.54317 10.6089 4.54818 10.6291 4.55932 10.646C4.81964 11.042 5.0794 11.4425 5.33862 11.8478C5.52237 12.1349 5.47561 12.3695 5.30335 12.6706C5.0403 13.1321 4.87186 13.4955 4.79803 13.7608C4.62741 14.3743 4.59624 14.7451 3.99003 14.8838C3.55198 14.9838 3.11339 15.0815 2.67425 15.1766C2.64143 15.1837 2.62503 15.204 2.62503 15.2373V16.2619C2.62503 16.2941 2.64089 16.3138 2.67261 16.3209C3.14456 16.4259 3.61323 16.5312 4.07862 16.6368C4.43792 16.718 4.55112 16.9173 4.65448 17.2774C4.83003 17.8888 5.08268 18.4677 5.41245 19.014C5.64706 19.4029 4.78655 20.5226 4.5585 20.863C4.5481 20.8785 4.54339 20.8971 4.54518 20.9156C4.54698 20.9342 4.55517 20.9516 4.56835 20.9647L5.28448 21.6809C5.29731 21.6934 5.31399 21.7012 5.33174 21.703C5.34949 21.7048 5.36725 21.7004 5.3821 21.6907C5.78569 21.4299 6.19639 21.1701 6.61421 20.9114C6.86468 20.7561 7.11761 20.7539 7.373 20.9049C8.05878 21.3093 8.55179 21.4413 9.19737 21.6718C9.34995 21.726 9.55093 21.9122 9.58046 22.0443C9.69257 22.5534 9.80386 23.062 9.91432 23.57C9.92253 23.6067 9.94522 23.625 9.98241 23.625H10.4385C10.4795 23.625 10.5 23.6045 10.5 23.5635V19.7269C10.5 19.6957 10.4844 19.6799 10.4533 19.6793C6.56171 19.5899 5.13026 14.5884 8.3385 12.4597C8.99968 12.02 9.78225 13.0241 8.99886 13.6024C7.94065 14.3834 7.583 15.6811 8.14409 16.8771C8.55753 17.7576 9.31604 18.2615 10.4196 18.389C10.4297 18.3901 10.4399 18.3891 10.4496 18.3861C10.4593 18.383 10.4682 18.378 10.4758 18.3712C10.4834 18.3645 10.4894 18.3562 10.4936 18.347C10.4978 18.3377 10.5 18.3277 10.5 18.3176C10.5 14.0191 10.5 9.71114 10.5 5.39356C10.5 4.59786 10.5372 4.05399 10.6116 3.76196C10.8946 2.65044 11.8068 1.73169 12.9224 1.43063C13.2101 1.35298 13.6798 1.31388 14.3317 1.31333C18.9402 1.31224 23.5487 1.31524 28.1573 1.32235C29.6757 1.32481 30.9923 2.27309 31.3835 3.74063C31.4596 4.02665 31.4978 4.50681 31.4984 5.1811C31.5006 9.1279 31.5008 13.0739 31.4992 17.019C31.4992 17.0306 31.5038 17.0416 31.5119 17.0498C31.5201 17.0579 31.5312 17.0625 31.5427 17.0625C32.1702 17.0633 33.0726 16.8279 33.2612 17.6802C33.3701 18.1724 33.4775 18.6651 33.5836 19.1584C33.5896 19.1868 33.6066 19.2054 33.6345 19.2142C34.095 19.3575 34.5376 19.5426 34.9626 19.7695C34.9738 19.7755 34.9863 19.7784 34.999 19.778C35.0117 19.7776 35.024 19.7738 35.0348 19.7671C35.5034 19.4668 35.9675 19.1696 36.4268 18.8754C36.7607 18.6613 37.0552 18.8221 37.3284 19.0821C37.7396 19.4748 38.1418 19.877 38.535 20.2888ZM30.1875 4.60934C30.1875 4.08307 29.9785 3.57834 29.6063 3.20621C29.2342 2.83407 28.7295 2.62501 28.2032 2.62501H13.7969C13.2706 2.62501 12.7659 2.83407 12.3937 3.20621C12.0216 3.57834 11.8125 4.08307 11.8125 4.60934V37.3907C11.8125 37.917 12.0216 38.4217 12.3937 38.7938C12.7659 39.1659 13.2706 39.375 13.7969 39.375H28.2032C28.7295 39.375 29.2342 39.1659 29.6063 38.7938C29.9785 38.4217 30.1875 37.917 30.1875 37.3907V4.60934Z" fill="#FE6100"/>
<path d="M22.9802 3.9408H19.0181C18.667 3.9408 18.3824 4.22543 18.3824 4.57654V4.61099C18.3824 4.9621 18.667 5.24673 19.0181 5.24673H22.9802C23.3313 5.24673 23.616 4.9621 23.616 4.61099V4.57654C23.616 4.22543 23.3313 3.9408 22.9802 3.9408Z" fill="#FE6100"/>
<path d="M34.1521 7.04516C34.0314 7.40562 34.2099 7.79024 34.5506 7.90424C34.8913 8.01824 35.2652 7.81844 35.3858 7.45797C35.5064 7.09751 35.328 6.71289 34.9873 6.59889C34.6466 6.48489 34.2727 6.68469 34.1521 7.04516Z" fill="#FE6100"/>
<path d="M34.1521 9.67016C34.0314 10.0306 34.2099 10.4152 34.5506 10.5292C34.8913 10.6432 35.2652 10.4434 35.3858 10.083C35.5064 9.72251 35.328 9.33789 34.9873 9.22389C34.6466 9.10989 34.2727 9.30969 34.1521 9.67016Z" fill="#FE6100"/>
<path d="M34.1521 12.2952C34.0314 12.6556 34.2099 13.0402 34.5506 13.1542C34.8913 13.2682 35.2652 13.0684 35.3858 12.708C35.5064 12.3475 35.328 11.9629 34.9873 11.8489C34.6466 11.7349 34.2727 11.9347 34.1521 12.2952Z" fill="#FE6100"/>
<path d="M16.0872 20.9295C16.0782 20.9381 16.071 20.9485 16.0662 20.96C16.0613 20.9716 16.0588 20.9839 16.0588 20.9965C16.0588 21.009 16.0613 21.0215 16.0662 21.033C16.071 21.0446 16.0782 21.0552 16.0872 21.064C16.739 21.7077 17.3928 22.3623 18.0485 23.0278C18.2241 23.2061 18.3283 23.3652 18.3611 23.5052C18.4661 23.9589 17.9468 24.4273 17.5055 24.2476C17.4016 24.205 17.2545 24.0893 17.0642 23.9006C16.2799 23.1235 15.5001 22.3423 14.7246 21.557C14.3276 21.1542 14.3563 20.8113 14.7328 20.4307C15.5417 19.6142 16.3543 18.8029 17.1708 17.9968C17.3217 17.8481 17.4593 17.7595 17.5834 17.7311C18.0141 17.6326 18.4521 18.0633 18.3627 18.4808C18.3321 18.6236 18.2241 18.7906 18.0387 18.982C17.3972 19.6416 16.7467 20.2907 16.0872 20.9295Z" fill="#FE6100"/>
<path d="M21.8234 17.7517L21.7979 17.7454C21.4533 17.6595 21.1043 17.8692 21.0183 18.2138L19.7082 23.4687C19.6222 23.8133 19.832 24.1623 20.1766 24.2483L20.2021 24.2546C20.5467 24.3406 20.8957 24.1308 20.9817 23.7862L22.2918 18.5314C22.3778 18.1867 22.168 17.8377 21.8234 17.7517Z" fill="#FE6100"/>
<path d="M24.7357 24.0991C24.2427 24.5716 23.4093 24.0278 23.6767 23.3912C23.7226 23.2824 23.8331 23.1402 24.0081 22.9646C24.649 22.3226 25.2886 21.6841 25.9268 21.0492C25.9331 21.043 25.938 21.0355 25.9414 21.0274C25.9448 21.0192 25.9465 21.0105 25.9465 21.0016C25.9465 20.9928 25.9448 20.984 25.9414 20.9759C25.938 20.9677 25.9331 20.9603 25.9268 20.9541C25.3154 20.341 24.6977 19.7233 24.0737 19.101C23.8665 18.8948 23.7379 18.7373 23.6882 18.6285C23.3814 17.9591 24.2386 17.4144 24.7899 17.9583C25.6315 18.7884 26.4679 19.6235 27.2992 20.4635C27.6733 20.8425 27.6314 21.1977 27.2713 21.5627C25.955 22.8949 25.1098 23.7404 24.7357 24.0991Z" fill="#FE6100"/>
<path d="M6.5849 29.2372C6.4715 29.5991 6.65784 29.9796 7.0011 30.0872C7.34435 30.1948 7.71455 29.9886 7.82794 29.6268C7.94134 29.2649 7.755 28.8844 7.41174 28.7768C7.06848 28.6692 6.69829 28.8754 6.5849 29.2372Z" fill="#FE6100"/>
<path d="M6.5849 31.8622C6.4715 32.2241 6.65784 32.6046 7.0011 32.7122C7.34435 32.8198 7.71455 32.6136 7.82794 32.2518C7.94134 31.8899 7.755 31.5094 7.41174 31.4018C7.06848 31.2942 6.69829 31.5004 6.5849 31.8622Z" fill="#FE6100"/>
<path d="M6.5849 34.4872C6.4715 34.8491 6.65784 35.2296 7.0011 35.3372C7.34435 35.4448 7.71455 35.2386 7.82794 34.8768C7.94134 34.5149 7.755 34.1344 7.41174 34.0268C7.06848 33.9192 6.69829 34.1254 6.5849 34.4872Z" fill="#FE6100"/>
</svg>
