<svg width="42" height="42" viewBox="0 0 42 42" fill="none" xmlns="http://www.w3.org/2000/svg">
<path d="M42 11.5918V34.3334C41.799 37.1339 39.8327 39.4332 37.0904 39.9632C36.7142 40.0359 36.17 40.0723 35.458 40.0723C25.7909 40.0723 16.1238 40.0723 6.45668 40.0723C5.77801 40.0717 5.25355 40.0345 4.88332 39.9607C2.15004 39.4152 0.193594 37.1159 0 34.3235V11.582C0.241992 8.27694 2.78168 5.80288 6.11625 5.79796C14.3516 5.78702 22.5873 5.78237 30.8232 5.78401C30.9028 5.78401 31.0702 5.81601 31.1899 5.80124C31.2168 5.79805 31.2415 5.78453 31.2588 5.76351C31.908 4.99132 32.559 4.22159 33.212 3.45433C34.1718 2.32667 35.3481 1.82546 36.741 1.95069C39.4029 2.1894 41.087 4.90956 40.1207 7.40577C40.1108 7.43202 40.1157 7.45499 40.1354 7.47468C41.2729 8.60726 41.8945 9.97964 42 11.5918ZM33.4482 5.07362C31.911 6.90347 30.3652 8.75245 28.811 10.6206C28.7705 10.6692 28.7727 10.716 28.8176 10.7608L31.5976 13.5401C31.6057 13.5482 31.6166 13.5529 31.6281 13.5533C31.6396 13.5538 31.651 13.5499 31.66 13.5425C33.7102 11.8379 35.7563 10.1281 37.7984 8.41311C38.2041 8.07186 38.4759 7.80909 38.6138 7.62479C39.5957 6.30901 39.2339 4.42886 37.8418 3.57491C36.7927 2.93179 35.4555 3.0294 34.5245 3.83659C34.4315 3.91753 34.0728 4.32987 33.4482 5.07362ZM5.28035 7.08667C3.00645 7.46237 1.23785 9.46558 1.23293 11.8125C1.23129 12.816 1.23047 13.8138 1.23047 14.8058C1.23047 14.8169 1.23488 14.8275 1.24272 14.8354C1.25057 14.8432 1.26121 14.8476 1.2723 14.8476H20.84C20.8707 14.8476 20.895 14.8353 20.913 14.8107C21.2538 14.3399 21.5934 13.8685 21.9319 13.3965C23.2755 11.5229 25.2812 10.6263 27.4821 10.208C27.5341 10.1979 27.581 10.1704 27.615 10.13L30.167 7.07601C30.1715 7.07045 30.1743 7.06373 30.1752 7.05663C30.176 7.04953 30.1748 7.04233 30.1717 7.03589C30.1686 7.02944 30.1638 7.024 30.1577 7.02021C30.1516 7.01642 30.1446 7.01444 30.1375 7.01448C22.4052 7.01284 14.6645 7.01311 6.91523 7.0153C6.11133 7.0153 5.56637 7.03909 5.28035 7.08667ZM39.4349 8.57554C38.6933 9.37124 37.7418 10.0701 36.9034 10.7691C36.8821 10.7866 36.873 10.8092 36.8763 10.8371C37.0281 12.1275 36.9551 13.4761 36.9551 14.7673C36.9551 14.7886 36.9635 14.809 36.9786 14.8241C36.9937 14.8392 37.0141 14.8476 37.0355 14.8476H40.7277C40.733 14.8476 40.7382 14.8466 40.7431 14.8446C40.748 14.8426 40.7524 14.8396 40.7561 14.8359C40.7599 14.8321 40.7628 14.8277 40.7648 14.8228C40.7668 14.818 40.7679 14.8127 40.7679 14.8075C40.7736 13.5729 40.8844 12.0151 40.6727 10.9208C40.5021 10.042 40.1043 9.2605 39.4792 8.57636C39.4763 8.57322 39.4729 8.57069 39.4691 8.56893C39.4652 8.56717 39.4611 8.56622 39.4569 8.56615C39.4528 8.56607 39.4487 8.56687 39.4449 8.56848C39.4411 8.5701 39.4377 8.5725 39.4349 8.57554ZM24.6668 12.5024C23.2411 13.3555 22.5487 14.7115 21.5611 15.9674C21.3404 16.2479 20.9459 16.6023 20.8581 17.019C20.653 17.9919 21.1616 18.6498 22.0164 19.0772C25.9366 21.0394 29.9627 18.6941 30.8938 14.6352C30.9009 14.6051 30.8935 14.5791 30.8716 14.5573L27.7709 11.4565C27.7506 11.4362 27.7263 11.4286 27.6979 11.4335C26.5122 11.6468 25.5019 12.0031 24.6668 12.5024ZM35.7418 11.8584C35.7517 11.8387 35.755 11.8221 35.7517 11.8084C35.7407 11.7668 35.7186 11.7597 35.6852 11.7871L32.1423 14.7476C32.1388 14.7503 32.1362 14.7539 32.1346 14.7581C32.133 14.7623 32.1325 14.7669 32.1333 14.7714L32.1448 14.8271C32.1459 14.833 32.149 14.8382 32.1535 14.842C32.158 14.8457 32.1636 14.8477 32.1694 14.8476H35.6869C35.6975 14.8476 35.7078 14.8435 35.7153 14.8361C35.7228 14.8287 35.7271 14.8187 35.7271 14.8083L35.7238 11.9364C35.7238 11.909 35.7298 11.883 35.7418 11.8584ZM20.4873 19.5415C19.5636 18.6793 19.3569 17.2651 19.8975 16.1536C19.9221 16.1033 19.9062 16.0781 19.8499 16.0781H1.2723C1.26121 16.0781 1.25057 16.0825 1.24272 16.0904C1.23488 16.0982 1.23047 16.1089 1.23047 16.12C1.23102 21.89 1.23074 27.6609 1.22965 33.4326C1.22965 34.1316 1.26793 34.6582 1.34449 35.0126C1.69969 36.6598 2.83582 37.9583 4.40754 38.5604C4.89645 38.748 5.36867 38.8418 5.82422 38.8418C14.0787 38.8423 22.333 38.8421 30.587 38.841C31.165 38.841 31.6168 38.8046 31.9421 38.7319C33.7444 38.3283 35.2095 36.8993 35.6122 35.079C35.6877 34.7378 35.7254 34.1939 35.7254 33.4474C35.7238 27.6741 35.7238 21.8993 35.7254 16.1232C35.7254 16.0932 35.7107 16.0781 35.6811 16.0781H31.7855C31.7505 16.0781 31.7267 16.0942 31.7141 16.1265C30.1161 20.2847 25.602 22.2419 21.4938 20.1928C21.052 19.9724 20.7164 19.7553 20.4873 19.5415ZM36.8394 35.1881C36.5463 36.6406 35.8061 37.847 34.6188 38.8073C34.5931 38.8281 34.5967 38.8388 34.6295 38.8393C35.4673 38.8541 36.0325 38.8522 36.3251 38.8336C38.4604 38.6982 40.2503 37.0289 40.667 34.9584C40.7359 34.6161 40.7704 34.0717 40.7704 33.3252C40.7698 27.5907 40.7695 21.8556 40.7695 16.12C40.7695 16.0921 40.7556 16.0781 40.7277 16.0781H36.9977C36.986 16.0781 36.9747 16.0828 36.9664 16.0911C36.9581 16.0994 36.9534 16.1107 36.9534 16.1224C36.9578 21.9652 36.957 27.8105 36.951 33.6582C36.9504 34.3128 36.9132 34.8228 36.8394 35.1881Z" fill="#FE6100"/>
<path d="M9.53121 10.9307C9.53121 11.5266 9.29449 12.0981 8.87313 12.5194C8.45176 12.9408 7.88027 13.1775 7.28437 13.1775C6.98931 13.1775 6.69714 13.1194 6.42455 13.0065C6.15195 12.8936 5.90426 12.7281 5.69562 12.5194C5.27426 12.0981 5.03754 11.5266 5.03754 10.9307C5.03754 10.3348 5.27426 9.76328 5.69562 9.34192C6.11698 8.92056 6.68848 8.68384 7.28437 8.68384C7.88027 8.68384 8.45176 8.92056 8.87313 9.34192C9.29449 9.76328 9.53121 10.3348 9.53121 10.9307ZM8.30238 10.9315C8.30238 10.798 8.27609 10.6659 8.22501 10.5425C8.17394 10.4192 8.09907 10.3072 8.00469 10.2128C7.91032 10.1184 7.79827 10.0436 7.67496 9.99249C7.55165 9.94142 7.41948 9.91513 7.28601 9.91513C7.01646 9.91513 6.75794 10.0222 6.56733 10.2128C6.37673 10.4034 6.26965 10.6619 6.26965 10.9315C6.26965 11.2011 6.37673 11.4596 6.56733 11.6502C6.75794 11.8408 7.01646 11.9479 7.28601 11.9479C7.41948 11.9479 7.55165 11.9216 7.67496 11.8705C7.79827 11.8194 7.91032 11.7446 8.00469 11.6502C8.09907 11.5558 8.17394 11.4438 8.22501 11.3204C8.27609 11.1971 8.30238 11.065 8.30238 10.9315Z" fill="#FE6100"/>
<path d="M15.3201 10.9307C15.3201 11.5268 15.0833 12.0985 14.6618 12.52C14.2403 12.9415 13.6686 13.1783 13.0725 13.1783C12.4764 13.1783 11.9047 12.9415 11.4832 12.52C11.0616 12.0985 10.8248 11.5268 10.8248 10.9307C10.8248 10.3346 11.0616 9.76285 11.4832 9.34134C11.9047 8.91982 12.4764 8.68301 13.0725 8.68301C13.6686 8.68301 14.2403 8.91982 14.6618 9.34134C15.0833 9.76285 15.3201 10.3346 15.3201 10.9307ZM14.0905 10.9315C14.0905 10.6617 13.9833 10.403 13.7926 10.2122C13.6018 10.0215 13.3431 9.9143 13.0733 9.9143C12.8035 9.9143 12.5448 10.0215 12.354 10.2122C12.1633 10.403 12.0561 10.6617 12.0561 10.9315C12.0561 11.2013 12.1633 11.46 12.354 11.6508C12.5448 11.8415 12.8035 11.9487 13.0733 11.9487C13.3431 11.9487 13.6018 11.8415 13.7926 11.6508C13.9833 11.46 14.0905 11.2013 14.0905 10.9315Z" fill="#FE6100"/>
<path d="M21.1075 10.9307C21.1075 11.5268 20.8707 12.0985 20.4491 12.52C20.0276 12.9415 19.4559 13.1783 18.8598 13.1783C18.2637 13.1783 17.692 12.9415 17.2705 12.52C16.849 12.0985 16.6122 11.5268 16.6122 10.9307C16.6122 10.3346 16.849 9.76285 17.2705 9.34134C17.692 8.91982 18.2637 8.68301 18.8598 8.68301C19.4559 8.68301 20.0276 8.91982 20.4491 9.34134C20.8707 9.76285 21.1075 10.3346 21.1075 10.9307ZM19.8762 10.9315C19.8762 10.6619 19.7691 10.4034 19.5785 10.2128C19.3879 10.0222 19.1294 9.91512 18.8598 9.91512C18.5903 9.91512 18.3317 10.0222 18.1411 10.2128C17.9505 10.4034 17.8434 10.6619 17.8434 10.9315C17.8434 11.201 17.9505 11.4596 18.1411 11.6502C18.3317 11.8408 18.5903 11.9479 18.8598 11.9479C19.1294 11.9479 19.3879 11.8408 19.5785 11.6502C19.7691 11.4596 19.8762 11.201 19.8762 10.9315Z" fill="#FE6100"/>
<path d="M16.6729 31.6017C16.6729 32.331 16.3832 33.0304 15.8675 33.546C15.3518 34.0617 14.6524 34.3514 13.9232 34.3514H7.77575C7.04649 34.3514 6.34709 34.0617 5.83143 33.546C5.31576 33.0304 5.02606 32.331 5.02606 31.6017V25.4559C5.02606 24.7267 5.31576 24.0273 5.83143 23.5116C6.34709 22.9959 7.04649 22.7062 7.77575 22.7062H13.9232C14.6524 22.7062 15.3518 22.9959 15.8675 23.5116C16.3832 24.0273 16.6729 24.7267 16.6729 25.4559V31.6017ZM15.4486 25.459C15.4493 25.0572 15.2903 24.6715 15.0067 24.3869C14.723 24.1023 14.3379 23.942 13.9361 23.9413L7.77885 23.9305C7.37702 23.9298 6.99136 24.0888 6.70673 24.3724C6.42209 24.6561 6.26179 25.0412 6.26109 25.443L6.25035 31.5986C6.24964 32.0004 6.4086 32.3861 6.69224 32.6707C6.97588 32.9554 7.36098 33.1157 7.76281 33.1164L13.9201 33.1271C14.3219 33.1278 14.7076 32.9689 14.9922 32.6852C15.2768 32.4016 15.4371 32.0165 15.4378 31.6146L15.4486 25.459Z" fill="#FE6100"/>
<path d="M31.363 23.5774C33.1226 25.0384 31.9389 27.6634 29.756 27.6577C27.1327 27.6506 24.509 27.6462 21.8851 27.6445C21.0949 27.6445 20.5641 27.6022 20.2929 27.5174C18.2077 26.8685 18.2077 23.8358 20.315 23.1607C20.5628 23.0814 20.9409 23.0404 21.4495 23.0377C25.6364 23.0136 28.5078 23.0158 30.0636 23.0442C30.5121 23.0524 30.9452 23.2302 31.363 23.5774ZM30.9577 25.3053C30.9572 25.0266 30.8461 24.7595 30.6486 24.5627C30.4512 24.366 30.1838 24.2558 29.9051 24.2563L21.0113 24.2718C20.8733 24.272 20.7367 24.2994 20.6093 24.3525C20.4819 24.4055 20.3662 24.4831 20.2687 24.5809C20.1713 24.6786 20.0941 24.7946 20.0416 24.9222C19.989 25.0498 19.962 25.1865 19.9623 25.3244L19.9624 25.3704C19.9628 25.6491 20.074 25.9162 20.2714 26.1129C20.4688 26.3096 20.7363 26.4199 21.015 26.4194L29.9088 26.4038C30.0468 26.4036 30.1834 26.3762 30.3108 26.3232C30.4382 26.2701 30.5539 26.1925 30.6513 26.0948C30.7487 25.997 30.8259 25.881 30.8785 25.7535C30.9311 25.6259 30.958 25.4892 30.9578 25.3512L30.9577 25.3053Z" fill="#FE6100"/>
<path d="M29.8799 29.4328C32.5385 29.4353 33.0553 33.1357 30.5903 33.9158C30.3699 33.9853 30.0393 34.0203 29.5985 34.0208C26.9112 34.023 24.2236 34.0233 21.5357 34.0216C20.9423 34.0216 20.5215 33.9804 20.2732 33.8978C18.1699 33.1997 18.2347 30.185 20.3503 29.5395C20.5942 29.4651 20.9492 29.4279 21.4151 29.4279C24.237 29.429 27.0586 29.4306 29.8799 29.4328ZM30.9611 31.7034C30.9611 31.4269 30.8512 31.1617 30.6557 30.9662C30.4602 30.7707 30.195 30.6608 29.9185 30.6608H21.0017C20.7251 30.6608 20.4599 30.7707 20.2644 30.9662C20.0689 31.1617 19.959 31.4269 19.959 31.7034V31.7477C19.959 32.0243 20.0689 32.2894 20.2644 32.485C20.4599 32.6805 20.7251 32.7903 21.0017 32.7903H29.9185C30.195 32.7903 30.4602 32.6805 30.6557 32.485C30.8512 32.2894 30.9611 32.0243 30.9611 31.7477V31.7034Z" fill="#FE6100"/>
</svg>
