<svg width="22" height="22" viewBox="0 0 22 22" fill="none" xmlns="http://www.w3.org/2000/svg">
<path d="M5.34201 16.6291C4.44624 15.7419 3.55447 14.8508 2.6667 13.9557C2.53426 13.8222 2.40592 13.6853 2.28167 13.5451C-0.2161 10.7298 1.12534 6.34408 4.6757 5.27289C5.24015 5.10261 5.69771 5.04049 6.28328 5.04017C8.37669 5.03933 10.4701 5.03923 12.5635 5.03986C13.0775 5.03986 13.4632 4.92886 13.8535 4.57316C14.0251 4.41654 14.141 4.32005 14.2014 4.28368C14.8352 3.90149 15.5838 3.89803 16.1908 4.31868C16.3772 4.44766 16.5799 4.6542 16.7502 4.82574C17.6594 5.7419 18.5708 6.65585 19.4842 7.56759C20.0673 8.1497 20.4965 8.82935 20.7717 9.60655C20.8089 9.71103 20.8662 9.93807 20.9436 10.2877C21.0495 10.7673 21.0605 11.3002 20.9927 11.8013C20.6651 14.2281 18.8447 16.0886 16.397 16.3361C16.24 16.3519 16.0301 16.3598 15.7673 16.3598C13.6365 16.3602 11.5059 16.3602 9.37547 16.3598C9.02902 16.3598 8.71662 16.4458 8.43829 16.6177C8.22701 16.748 7.98042 17.0359 7.77451 17.1481C7.13816 17.495 6.38104 17.4899 5.80271 17.0582C5.7285 17.003 5.57493 16.8599 5.34201 16.6291ZM17.3475 9.34986C16.7319 8.7337 16.1161 8.11774 15.4999 7.502C15.3195 7.32163 15.1133 7.13242 14.9175 7.04823C14.447 6.84578 13.9807 6.82424 13.5187 6.98359C13.1781 7.10058 12.9394 7.32005 12.6802 7.57989C11.242 9.0216 9.80338 10.4629 8.36418 11.9038C8.1384 12.1299 7.94826 12.3251 7.67423 12.4137C6.95306 12.6467 6.20161 12.3386 5.9115 11.6319C5.74816 11.2349 5.77402 10.8203 5.98245 10.4491C6.24387 9.98369 6.79034 9.70367 7.03725 9.23981C7.34313 8.66496 6.93004 7.89932 6.28581 7.82869C5.05253 7.69341 3.97124 8.66969 3.79623 9.86071C3.68744 10.6008 3.95295 11.3302 4.48461 11.8621C5.20042 12.5784 5.91855 13.2923 6.63898 14.0039C7.35511 14.7115 8.48306 14.6853 9.18689 13.9803C10.7566 12.4071 12.3278 10.8354 13.9005 9.26504C14.3669 8.7996 15.1893 8.80528 15.6904 9.19913C16.2495 9.6384 16.3791 10.4113 16.0004 11.0114C15.6346 11.5919 14.6476 12.0403 14.9339 12.8747C15.0714 13.2752 15.3836 13.5479 15.8086 13.5738C17.4745 13.675 18.6703 11.9438 18.114 10.4179C17.9554 9.98337 17.6887 9.69106 17.3475 9.34986Z" fill="#FE6100"/>
<path d="M17.3473 9.34997C17.6885 9.69117 17.9552 9.98348 18.1138 10.418C18.6701 11.9439 17.4743 13.6751 15.8084 13.5739C15.3834 13.548 15.0712 13.2753 14.9337 12.8748C14.6474 12.0404 15.6344 11.592 16.0002 11.0115C16.3789 10.4114 16.2493 9.63851 15.6902 9.19924C15.1891 8.80539 14.3667 8.79971 13.9003 9.26515C12.3276 10.8355 10.7564 12.4073 9.18669 13.9804C8.48286 14.6855 7.35491 14.7116 6.63878 14.004C5.91834 13.2924 5.20022 12.5785 4.48441 11.8623C3.95275 11.3303 3.68724 10.6009 3.79603 9.86082C3.97104 8.66979 5.05233 7.69352 6.28561 7.82879C6.92984 7.89943 7.34293 8.66506 7.03705 9.23992C6.79014 9.70378 6.24367 9.9838 5.98225 10.4492C5.77382 10.8204 5.74796 11.2351 5.9113 11.6321C6.20141 12.3387 6.95286 12.6468 7.67403 12.4138C7.94805 12.3252 8.1382 12.13 8.36398 11.9039C9.80317 10.463 11.2418 9.02171 12.68 7.57999C12.9392 7.32016 13.1779 7.10068 13.5185 6.98369C13.9805 6.82434 14.4468 6.84589 14.9173 7.04834C15.1131 7.13253 15.3193 7.32173 15.4997 7.50211C16.1159 8.11785 16.7317 8.73381 17.3473 9.34997Z" fill="white"/>
</svg>
